# xmcd
#
# Track frame offsets:
#	150
#	15427
#	31245
#	48451
#	62430
#	77665
#	91288
#	102633
#	115436
#	129054
#
# Disc length: 1866 seconds
#
# Revision: 0
# Processed by: cddbd v1.5.1PL0 Copyright (c) Steve Scherf et al.
# Submitted via: dBpowerAMP V4.0
#
DISCID=7307480a
DTITLE=Jessie - The Ways Of Love
DYEAR=1900
DGENRE=Country
TTITLE0=Train Of Love
TTITLE1=Perpetual Flame
TTITLE2=You're In Love
TTITLE3=Cowgirl's Dream
TTITLE4=The Ways  of Love
TTITLE5=He'll Dance With Them All
TTITLE6=Staying Is The Harder ThingTo Do
TTITLE7=Crying Time
TTITLE8=Fly Little Wing
TTITLE9=Free Spirt
EXTD=
EXTT0=
EXTT1=
EXTT2=
EXTT3=
EXTT4=
EXTT5=
EXTT6=
EXTT7=
EXTT8=
EXTT9=
PLAYORDER=
